name Walk3.mot
datacolumns 19
datarows 22
range 3.69000000 3.79500000
endheader

                time	   L_ground_force_vx	   L_ground_force_vy	   L_ground_force_vz	   L_ground_force_px	   L_ground_force_py	   L_ground_force_pz	   R_ground_force_vx	   R_ground_force_vy	   R_ground_force_vz	   R_ground_force_px	   R_ground_force_py	   R_ground_force_pz	   L_ground_torque_x	   L_ground_torque_y	   L_ground_torque_z	   R_ground_torque_x	   R_ground_torque_y	   R_ground_torque_z	
          3.69000000	          0.00000000	          0.00000000	         -0.00000000	         -0.00000000	          0.00000000	         -0.00000000	         25.97093490	         98.97153175	          1.35365498	          0.16210942	          0.00000000	          0.07011379	          0.00000000	          0.00000000	          0.00000000	          0.00000000	         -6.12817240	          0.00000000	
          3.69500000	          0.00000000	          0.00000000	         -0.00000000	         -0.00000000	          0.00000000	         -0.00000000	         19.37343951	         69.63185773	          1.46901270	          0.13893457	          0.00000000	          0.05994829	          0.00000000	          0.00000000	          0.00000000	          0.00000000	         -4.76468535	          0.00000000	
          3.70000000	          0.00000000	          0.00000000	         -0.00000000	         -0.00000000	          0.00000000	         -0.00000000	         13.62752927	         45.37514997	          1.42774037	          0.11382760	          0.00000000	          0.04901436	          0.00000000	          0.00000000	          0.00000000	          0.00000000	         -3.52020444	          0.00000000	
          3.70500000	          0.00000000	          0.00000000	         -0.00000000	         -0.00000000	          0.00000000	         -0.00000000	          8.86572123	         26.23395003	          1.28839114	          0.08877414	          0.00000000	          0.03814849	          0.00000000	          0.00000000	          0.00000000	          0.00000000	         -2.44404406	          0.00000000	
          3.71000000	          0.00000000	          0.00000000	         -0.00000000	         -0.00000000	          0.00000000	         -0.00000000	          5.11089462	         11.88428107	          1.09713301	          0.06568688	          0.00000000	          0.02816333	          0.00000000	          0.00000000	          0.00000000	          0.00000000	         -1.56062892	          0.00000000	
          3.71500000	          0.00000000	          0.00000000	         -0.00000000	         -0.00000000	          0.00000000	         -0.00000000	          2.29878709	          1.74221340	          0.88771293	          0.04568643	          0.00000000	          0.01953267	          0.00000000	          0.00000000	          0.00000000	          0.00000000	         -0.87068503	          0.00000000	
          3.72000000	          0.00000000	          0.00000000	         -0.00000000	         -0.00000000	          0.00000000	         -0.00000000	          0.31363074	         -4.89948613	          0.68320852	          0.02924729	          0.00000000	          0.01245319	          0.00000000	          0.00000000	          0.00000000	          0.00000000	         -0.35937672	          0.00000000	
          3.72500000	          0.00000000	         -0.00000000	         -0.00000000	         -0.00000000	          0.00000000	         -0.00000000	         -0.98421597	         -8.77118927	          0.49803028	          0.01639207	          0.00000000	          0.00692836	          0.00000000	          0.00000000	          0.00000000	          0.00000000	         -0.00306225	          0.00000000	
          3.73000000	         -0.00000000	         -0.00000000	         -0.00000000	         -0.00000000	          0.00000000	         -0.00000000	         -1.73866034	        -10.56034247	          0.33989088	          0.00685186	          0.00000000	          0.00283745	          0.00000000	          0.00000000	          0.00000000	          0.00000000	          0.22567750	          0.00000000	
          3.73500000	         -0.00000000	         -0.00000000	         -0.00000000	         -0.00000000	          0.00000000	         -0.00000000	         -2.08496389	        -10.87249636	          0.21159789	          0.00019201	          0.00000000	         -0.00001038	          0.00000000	          0.00000000	          0.00000000	          0.00000000	          0.35451551	          0.00000000	
          3.74000000	         -0.00000000	         -0.00000000	         -0.00000000	         -0.00000000	          0.00000000	         -0.00000000	         -2.14214621	        -10.21279160	          0.11259125	         -0.00409401	          0.00000000	         -0.00183582	          0.00000000	         -0.00000000	          0.00000000	          0.00000000	          0.40909894	          0.00000000	
          3.74500000	         -0.00000000	         -0.00000000	          0.00000000	          0.00000000	          0.00000000	          0.00000000	         -2.00939826	         -8.98202739	          0.04019560	         -0.00651877	          0.00000000	         -0.00286125	          0.00000000	         -0.00000000	          0.00000000	          0.00000000	          0.41174746	          0.00000000	
          3.75000000	         -0.00000000	         -0.00000000	          0.00000000	          0.00000000	          0.00000000	          0.00000000	         -1.76535047	         -7.48239238	         -0.00940931	         -0.00755816	          0.00000000	         -0.00329255	          0.00000000	         -0.00000000	          0.00000000	          0.00000000	          0.38088165	          0.00000000	
          3.75500000	         -0.00000000	         -0.00000000	          0.00000000	          0.00000000	          0.00000000	          0.00000000	         -1.46922947	         -5.92893874	         -0.04047582	         -0.00762694	          0.00000000	         -0.00330873	          0.00000000	         -0.00000000	          0.00000000	          0.00000000	          0.33096488	          0.00000000	
          3.76000000	         -0.00000000	         -0.00000000	          0.00000000	          0.00000000	          0.00000000	          0.00000000	         -1.16313452	         -4.46383164	         -0.05719702	         -0.00706785	          0.00000000	         -0.00305742	          0.00000000	         -0.00000000	          0.00000000	          0.00000000	          0.27277890	          0.00000000	
          3.76500000	         -0.00000000	         -0.00000000	          0.00000000	          0.00000000	          0.00000000	          0.00000000	         -0.87485189	         -3.17125173	         -0.06339641	         -0.00615034	          0.00000000	         -0.00265446	          0.00000000	         -0.00000000	          0.00000000	          0.00000000	          0.21389184	          0.00000000	
          3.77000000	         -0.00000000	         -0.00000000	          0.00000000	          0.00000000	          0.00000000	          0.00000000	         -0.62079161	         -2.09153761	         -0.06235807	         -0.00507554	          0.00000000	         -0.00218612	          0.00000000	         -0.00000000	          0.00000000	          0.00000000	          0.15921246	          0.00000000	
          3.77500000	         -0.00000000	         -0.00000000	          0.00000000	          0.00000000	          0.00000000	          0.00000000	         -0.40877057	         -1.23372252	         -0.05676043	         -0.00398487	          0.00000000	         -0.00171288	          0.00000000	         -0.00000000	          0.00000000	          0.00000000	          0.11155585	          0.00000000	
          3.78000000	         -0.00000000	         -0.00000000	          0.00000000	          0.00000000	          0.00000000	          0.00000000	         -0.24047677	         -0.58604979	         -0.04868171	         -0.00297030	          0.00000000	         -0.00127393	          0.00000000	         -0.00000000	          0.00000000	          0.00000000	          0.07217187	          0.00000000	
          3.78500000	         -0.00000000	         -0.00000000	          0.00000000	          0.00000000	          0.00000000	          0.00000000	         -0.11353441	         -0.12436036	         -0.03965085	         -0.00208475	          0.00000000	         -0.00089169	          0.00000000	         -0.00000000	          0.00000000	          0.00000000	          0.04120776	          0.00000000	
          3.79000000	         -0.00000000	         -0.00000000	          0.00000000	          0.00000000	          0.00000000	          0.00000000	         -0.02314954	          0.18154752	         -0.03072363	         -0.00135199	          0.00000000	         -0.00057605	          0.00000000	         -0.00000000	          0.00000000	          0.00000000	          0.01809204	          0.00000000	
          3.79500000	         -0.00000000	          0.00000000	          0.00000000	          0.00000000	          0.00000000	          0.00000000	          0.03664338	          0.36336211	         -0.02256891	         -0.00077516	          0.00000000	         -0.00032807	          0.00000000	         -0.00000000	          0.00000000	          0.00000000	          0.00183752	          0.00000000	
